# xmcd CD database file
#
# Track frame offsets:
#	150
#	15300
#	36115
#	49485
#	68157
#	88957
#	113347
#	131997
#	148720
#	174540
#	184465
#
# Disc length: 2849 seconds
#
# Revision: 3
# Processed by: cddbd v1.5.2PL0 Copyright (c) Steve Scherf et al.
# Submitted via: CDex 1.51
#
DISCID=9e0b1f0b
DTITLE=GARDENIAN - SOULBURNER
DYEAR=1999
DGENRE=Melodic Death Metal
TTITLE0=As A True King
TTITLE1=Powertool
TTITLE2=Deserted
TTITLE3=Soulburner
TTITLE4=If Tomorrow's Gone
TTITLE5=Small Electric Space
TTITLE6=Chaos In Flesh
TTITLE7=Ecstasy Of Life
TTITLE8=Tell The World I'm Sorry
TTITLE9=Loss
TTITLE10=Black Days
EXTD=YEAR: 1999
EXTT0=
EXTT1=
EXTT2=
EXTT3=
EXTT4=
EXTT5=
EXTT6=
EXTT7=
EXTT8=
EXTT9=
EXTT10=
PLAYORDER=
